<svg width="14" height="10" viewBox="0 0 14 10" fill="none" xmlns="http://www.w3.org/2000/svg">
<path fill-rule="evenodd" clip-rule="evenodd" d="M7.34625 0.507159C7.61845 0.194937 8.09221 0.162487 8.40443 0.434681L12.9927 4.43468C13.156 4.57711 13.2498 4.78326 13.2498 5.00001C13.2498 5.21676 13.156 5.42291 12.9927 5.56534L8.40443 9.56534C8.09221 9.83753 7.61845 9.80509 7.34625 9.49286C7.07406 9.18064 7.10651 8.70687 7.41873 8.43468L10.4982 5.75001H1.49982C1.0856 5.75001 0.749817 5.41422 0.749817 5.00001C0.749817 4.5858 1.0856 4.25001 1.49982 4.25001H10.4982L7.41873 1.56534C7.10651 1.29315 7.07406 0.819382 7.34625 0.507159Z" fill="white"/>
</svg>
